<svg width="19" height="18" viewBox="0 0 19 18" fill="none" xmlns="http://www.w3.org/2000/svg">
<g id="home">
<path id="Vector" d="M7.95759 1.51869L2.41442 6.04324C1.79051 6.54868 1.39057 7.61667 1.52655 8.4156L2.59039 14.9048C2.78236 16.0625 3.87019 17 5.02202 17H13.9807C15.1245 17 16.2203 16.0543 16.4123 14.9048L17.4761 8.4156C17.6041 7.61667 17.2042 6.54868 16.5883 6.04324L11.0451 1.52685C10.1892 0.825752 8.80546 0.825744 7.95759 1.51869Z" stroke="#3E00C2" stroke-width="1.3" stroke-linecap="round" stroke-linejoin="round"/>
<path id="Vector_2" d="M9.50141 11.8558C10.6058 11.8558 11.5011 10.9434 11.5011 9.81775C11.5011 8.69215 10.6058 7.77966 9.50141 7.77966C8.397 7.77966 7.50171 8.69215 7.50171 9.81775C7.50171 10.9434 8.397 11.8558 9.50141 11.8558Z" stroke="#3E00C2" stroke-width="1.3" stroke-linecap="round" stroke-linejoin="round"/>
</g>
</svg>
