<svg width="27" height="26" viewBox="0 0 27 26" fill="none" xmlns="http://www.w3.org/2000/svg">
<g id="TrendUp">
<path id="Vector" d="M24.5467 5.52344V11.8359C24.5472 11.9917 24.5015 12.1442 24.4155 12.274C24.3295 12.4039 24.207 12.5055 24.0634 12.5658C23.966 12.6045 23.8623 12.6245 23.7576 12.625C23.5481 12.6241 23.3469 12.5429 23.1954 12.3981L20.6014 9.79424L14.8511 15.5544C14.7015 15.7026 14.4994 15.7857 14.2889 15.7857C14.0783 15.7857 13.8763 15.7026 13.7267 15.5544L10.3435 12.1614L3.80419 18.7106C3.65273 18.8554 3.45152 18.9366 3.24199 18.9375C3.03285 18.9347 2.83232 18.8537 2.67978 18.7106C2.53161 18.561 2.44849 18.359 2.44849 18.1484C2.44849 17.9379 2.53161 17.7358 2.67978 17.5862L9.78134 10.4847C9.93094 10.3365 10.133 10.2534 10.3435 10.2534C10.5541 10.2534 10.7562 10.3365 10.9058 10.4847L14.2889 13.8776L19.4868 8.67969L16.8829 6.08564C16.7759 5.97156 16.7033 5.82949 16.6736 5.67589C16.644 5.52229 16.6584 5.36342 16.7152 5.21768C16.7767 5.07483 16.8784 4.95301 17.0081 4.86716C17.1377 4.78131 17.2896 4.73516 17.4451 4.73438H23.7576C23.9669 4.73438 24.1676 4.81751 24.3156 4.96549C24.4635 5.11346 24.5467 5.31417 24.5467 5.52344Z" fill="#3E00C2"/>
</g>
</svg>
